<svg width="69" height="33" viewBox="0 0 69 33" fill="none" xmlns="http://www.w3.org/2000/svg">
<path d="M66.7012 16L67.5615 16.7529L66.7012 17.5059L50.7012 31.5059L49.3848 30L63.0068 18.0811H1V16.0811H63.7568L49.3848 3.50586L50.7012 2L66.7012 16Z" fill="#0A0A0A"/>
<path d="M66.7012 16L67.1951 15.4356L67.1951 15.4356L66.7012 16ZM67.5615 16.7529L68.0555 17.3173L68.7004 16.7529L68.0555 16.1885L67.5615 16.7529ZM66.7012 17.5059L67.1951 18.0703L67.1951 18.0703L66.7012 17.5059ZM50.7012 31.5059L50.1365 31.9995L50.6304 32.5644L51.195 32.0703L50.7012 31.5059ZM49.3848 30L48.8909 29.4356L48.3267 29.9292L48.8201 30.4936L49.3848 30ZM63.0068 18.0811L63.5007 18.6455L65.003 17.3311H63.0068V18.0811ZM1 18.0811H0.25V18.8311H1V18.0811ZM1 16.0811V15.3311H0.25V16.0811H1ZM63.7568 16.0811V16.8311H65.753L64.2507 15.5166L63.7568 16.0811ZM49.3848 3.50586L48.8201 3.01224L48.3267 3.57665L48.8909 4.0703L49.3848 3.50586ZM50.7012 2L51.195 1.43557L50.6304 0.941462L50.1365 1.50638L50.7012 2ZM66.7012 16L66.2072 16.5644L67.0676 17.3173L67.5615 16.7529L68.0555 16.1885L67.1951 15.4356L66.7012 16ZM67.5615 16.7529L67.0676 16.1885L66.2072 16.9415L66.7012 17.5059L67.1951 18.0703L68.0555 17.3173L67.5615 16.7529ZM66.7012 17.5059L66.2073 16.9414L50.2073 30.9414L50.7012 31.5059L51.195 32.0703L67.1951 18.0703L66.7012 17.5059ZM50.7012 31.5059L51.2658 31.0122L49.9494 29.5064L49.3848 30L48.8201 30.4936L50.1365 31.9995L50.7012 31.5059ZM49.3848 30L49.8786 30.5644L63.5007 18.6455L63.0068 18.0811L62.513 17.5166L48.8909 29.4356L49.3848 30ZM63.0068 18.0811V17.3311H1V18.0811V18.8311H63.0068V18.0811ZM1 18.0811H1.75V16.0811H1H0.25V18.0811H1ZM1 16.0811V16.8311H63.7568V16.0811V15.3311H1V16.0811ZM63.7568 16.0811L64.2507 15.5166L49.8786 2.94142L49.3848 3.50586L48.8909 4.0703L63.263 16.6455L63.7568 16.0811ZM49.3848 3.50586L49.9494 3.99948L51.2658 2.49362L50.7012 2L50.1365 1.50638L48.8201 3.01224L49.3848 3.50586ZM50.7012 2L50.2073 2.56443L66.2073 16.5644L66.7012 16L67.1951 15.4356L51.195 1.43557L50.7012 2Z" fill="#0A0A0A"/>
</svg>
