<svg width="155" height="155" viewBox="0 0 155 155" fill="none" xmlns="http://www.w3.org/2000/svg">
<rect width="155" height="155" fill="#D3012A"/>
<path d="M42.5303 58.8926L42.5283 58.8789C42.5049 58.6691 42.5636 58.5213 42.6592 58.4248C42.7579 58.3252 42.9269 58.25 43.1768 58.25H54.8379C55.1231 58.25 55.3469 58.3288 55.4941 58.4502C55.6364 58.5675 55.7246 58.7378 55.7246 58.9678V96.6436C55.7246 96.908 55.6595 97.0387 55.582 97.1094C55.4996 97.1845 55.3501 97.2412 55.0781 97.2412H36.3018C35.8024 97.2412 35.4566 96.9457 35.4131 96.5566L32.4824 68.9199L32.458 68.6963H31.3857V96.6465C31.3857 96.8609 31.3178 96.9984 31.2178 97.0859C31.1126 97.1778 30.939 97.2441 30.6797 97.2441H19.1367C18.8517 97.2441 18.6277 97.1652 18.4805 97.0439C18.3383 96.9267 18.2501 96.7562 18.25 96.5264V59.0977H18.2529V58.8477C18.2529 58.5833 18.3181 58.4486 18.3926 58.377C18.469 58.3037 18.6026 58.25 18.8379 58.25H37.5547C38.0636 58.2501 38.4108 58.4964 38.5039 58.8916L41.4346 86.5732L41.458 86.7969H42.5303V58.8926Z" fill="#FEFEFE" stroke="#D3012A" stroke-width="0.5"/>
<path d="M84.1489 96.5293L84.1431 96.5176L82.7222 68.9336L82.7095 68.6963H81.6431L81.6304 68.9326L80.147 96.6191C80.1231 96.829 80.0353 96.976 79.9087 97.0742C79.7776 97.1759 79.584 97.2412 79.3286 97.2412H62.2446C62.0119 97.2412 61.8547 97.1889 61.7524 97.1035C61.6535 97.0209 61.5701 96.8775 61.5444 96.6191L57.7485 58.9424C57.7251 58.7067 57.7944 58.5462 57.9077 58.4404C58.0269 58.3292 58.2262 58.25 58.5093 58.25H70.0767C70.3319 58.2501 70.5264 58.3153 70.6577 58.417C70.7531 58.491 70.8267 58.5926 70.8667 58.7275L70.895 58.874L72.3774 86.5586L72.3901 86.7949H73.4575L73.4692 86.5576L74.8931 58.9219H74.894V58.9092C74.894 58.7039 74.9696 58.5458 75.0913 58.4375C75.2156 58.327 75.4053 58.253 75.6528 58.2529H88.5835C88.8387 58.2529 89.0332 58.3174 89.1646 58.4189C89.2901 58.5162 89.377 58.6615 89.4009 58.8672L90.8853 86.5615L90.8979 86.7979H91.9653L91.9771 86.5605L93.4009 58.9238V58.9111C93.4009 58.7059 93.4774 58.5487 93.5991 58.4404C93.7234 58.3299 93.9131 58.2549 94.1606 58.2549H105.846C106.129 58.2549 106.328 58.3342 106.447 58.4453C106.56 58.5509 106.629 58.7119 106.607 58.9473L102.81 96.6211C102.784 96.8776 102.702 97.0191 102.599 97.1016C102.49 97.1885 102.317 97.2441 102.049 97.2441H84.9077C84.6621 97.2441 84.4722 97.1689 84.3472 97.0576C84.2247 96.9486 84.149 96.791 84.1489 96.5879V96.5293Z" fill="#FEFEFE" stroke="#D3012A" stroke-width="0.5"/>
<path d="M109.32 58.25H120.897C121.14 58.25 121.328 58.3246 121.451 58.4355C121.572 58.5444 121.647 58.7022 121.647 58.9062V84.7324C121.647 85.0601 121.755 85.356 121.973 85.5693C122.19 85.7822 122.493 85.8896 122.838 85.8896H123.425C123.769 85.8896 124.083 85.7817 124.312 85.5752C124.544 85.3666 124.675 85.0709 124.675 84.7324V58.9062C124.675 58.689 124.744 58.5312 124.849 58.4277C124.955 58.3239 125.123 58.25 125.365 58.25H137C137.242 58.25 137.429 58.3247 137.553 58.4355C137.674 58.5444 137.75 58.7021 137.75 58.9062V91.4463C137.75 93.3487 137.099 94.7821 135.862 95.7471C134.616 96.7198 132.74 97.2441 130.244 97.2441H116.139C113.641 97.2441 111.765 96.7201 110.518 95.7471C109.282 94.7821 108.633 93.3487 108.633 91.4463V90.8311L108.63 90.834V58.9062C108.63 58.6889 108.699 58.5312 108.805 58.4277C108.911 58.3239 109.078 58.25 109.32 58.25Z" fill="#FEFEFE" stroke="#D3012A" stroke-width="0.5"/>
</svg>
