<svg width="338" height="208" viewBox="0 0 338 208" fill="none" xmlns="http://www.w3.org/2000/svg">
<rect width="338" height="208" fill="#D3012A"/>
<g clip-path="url(#clip0_717_2905)">
<path d="M31 169.673V147.705H34.3791L38.8326 158.28V147.705H42.8008V169.673H39.5546L35.1011 158.286V169.673H31Z" fill="#0A0A0A"/>
<path d="M44.8687 169.673L48.9755 147.705H54.4456L58.4948 169.673H54.0702L53.3481 165.036H50.1597L49.4088 169.673H44.8744H44.8687ZM50.5813 162.14H52.886L51.7308 153.568L50.5756 162.14H50.5813Z" fill="#0A0A0A"/>
<path d="M61.4463 169.673V151.314H58.177V147.705H69.5215V151.314H66.2753V169.673H61.4463Z" fill="#0A0A0A"/>
<path d="M71.3181 169.673V147.705H76.1182V169.673H71.3181Z" fill="#0A0A0A"/>
<path d="M85.4525 170C83.8236 170 82.5355 169.714 81.5882 169.135C80.6409 168.557 79.9593 167.722 79.5492 166.642C79.1391 165.556 78.9312 164.265 78.9312 162.765V154.601C78.9312 153.083 79.1333 151.793 79.5492 150.724C79.9593 149.655 80.6409 148.838 81.5882 148.271C82.5355 147.699 83.8236 147.419 85.4525 147.419C87.0814 147.419 88.3984 147.705 89.3572 148.271C90.3103 148.844 90.9977 149.661 91.4078 150.724C91.8179 151.793 92.0258 153.083 92.0258 154.601V162.765C92.0258 164.265 91.8179 165.556 91.4078 166.642C90.9977 167.728 90.3103 168.557 89.3572 169.135C88.3984 169.714 87.0987 170 85.4525 170ZM85.4525 166.56C85.955 166.56 86.3189 166.432 86.55 166.181C86.781 165.93 86.937 165.603 87.0063 165.206C87.0756 164.809 87.1161 164.4 87.1161 163.985V153.41C87.1161 152.978 87.0814 152.563 87.0063 152.178C86.937 151.787 86.781 151.471 86.55 151.215C86.3189 150.963 85.9493 150.835 85.4525 150.835C84.9846 150.835 84.6381 150.963 84.407 151.215C84.176 151.466 84.02 151.787 83.9507 152.178C83.8814 152.569 83.8409 152.978 83.8409 153.41V163.985C83.8409 164.4 83.8698 164.809 83.9334 165.206C83.9969 165.603 84.1355 165.93 84.3608 166.181C84.5861 166.432 84.9442 166.56 85.4467 166.56H85.4525Z" fill="#0A0A0A"/>
<path d="M94.8157 169.673V147.705H98.1948L102.648 158.28V147.705H106.616V169.673H103.37L98.9168 158.286V169.673H94.8157Z" fill="#0A0A0A"/>
<path d="M108.684 169.673L112.791 147.705H118.261L122.31 169.673H117.886L117.164 165.036H113.975L113.224 169.673H108.69H108.684ZM114.397 162.14H116.702L115.546 153.568L114.391 162.14H114.397Z" fill="#0A0A0A"/>
<path d="M124.373 169.673V147.705H129.173V166.391H134.163V169.673H124.373Z" fill="#0A0A0A"/>
<path d="M142.053 169.673L139.425 147.705H143.503L144.791 160.505L146.426 147.734H149.62L151.336 160.423L152.653 147.705H156.673L154.074 169.673H149.886L148.038 156.412L146.293 169.673H142.053Z" fill="#0A0A0A"/>
<path d="M158.868 169.673V147.705H164.846C166.314 147.705 167.584 147.869 168.653 148.196C169.727 148.523 170.559 149.107 171.16 149.947C171.761 150.788 172.061 151.974 172.061 153.515C172.061 154.42 171.992 155.22 171.847 155.927C171.703 156.633 171.443 157.241 171.056 157.755C170.669 158.268 170.12 158.701 169.404 159.045L172.379 169.673H167.417L165.031 159.828H163.662V169.673H158.862H158.868ZM163.674 157.036H165.014C165.696 157.036 166.221 156.914 166.597 156.668C166.972 156.423 167.238 156.073 167.388 155.612C167.538 155.15 167.613 154.596 167.613 153.941C167.613 153.001 167.446 152.271 167.105 151.746C166.764 151.22 166.14 150.958 165.228 150.958H163.674V157.031V157.036Z" fill="#0A0A0A"/>
<path d="M174.857 169.673V147.705H179.657V169.673H174.857Z" fill="#0A0A0A"/>
<path d="M184.728 169.673V151.314H181.459V147.705H192.803V151.314H189.557V169.673H184.728Z" fill="#0A0A0A"/>
<path d="M194.577 169.673V147.705H204.338V151.01H199.377V156.464H203.16V159.828H199.377V166.391H204.396V169.673H194.577Z" fill="#0A0A0A"/>
<path d="M206.43 169.673V147.705H212.408C213.875 147.705 215.146 147.869 216.215 148.196C217.289 148.523 218.121 149.107 218.721 149.947C219.322 150.788 219.622 151.974 219.622 153.515C219.622 154.42 219.553 155.22 219.409 155.927C219.264 156.633 219.004 157.241 218.617 157.755C218.23 158.268 217.682 158.701 216.965 159.045L219.94 169.673H214.978L212.593 159.828H211.224V169.673H206.424H206.43ZM211.23 157.036H212.57C213.251 157.036 213.777 156.914 214.152 156.668C214.528 156.423 214.794 156.073 214.944 155.612C215.094 155.15 215.169 154.596 215.169 153.941C215.169 153.001 215.002 152.271 214.661 151.746C214.32 151.22 213.696 150.958 212.783 150.958H211.23V157.031V157.036Z" fill="#0A0A0A"/>
<path d="M228.05 170C226.692 170 225.555 169.754 224.642 169.27C223.729 168.779 223.042 168.026 222.574 167.004C222.112 165.982 221.852 164.657 221.794 163.033L225.895 162.409C225.913 163.349 225.999 164.108 226.149 164.686C226.3 165.264 226.513 165.679 226.791 165.936C227.068 166.187 227.403 166.315 227.796 166.315C228.298 166.315 228.622 166.146 228.778 165.801C228.928 165.457 229.009 165.095 229.009 164.715C229.009 163.81 228.795 163.045 228.362 162.426C227.934 161.801 227.351 161.176 226.617 160.54L224.74 158.887C223.92 158.181 223.227 157.381 222.661 156.487C222.095 155.594 221.817 154.485 221.817 153.165C221.817 151.302 222.366 149.877 223.452 148.896C224.544 147.909 226.028 147.419 227.905 147.419C229.066 147.419 230.002 147.617 230.707 148.015C231.412 148.412 231.949 148.931 232.318 149.574C232.682 150.216 232.937 150.893 233.069 151.606C233.202 152.318 233.277 153.001 233.3 153.655L229.17 154.169C229.153 153.521 229.113 152.955 229.049 152.476C228.986 151.997 228.859 151.629 228.662 151.366C228.466 151.104 228.16 150.975 227.749 150.975C227.299 150.975 226.975 151.162 226.768 151.547C226.56 151.927 226.456 152.306 226.456 152.686C226.456 153.498 226.646 154.163 227.033 154.677C227.42 155.191 227.923 155.728 228.547 156.289L230.343 157.889C231.29 158.701 232.093 159.623 232.746 160.657C233.399 161.69 233.728 162.963 233.728 164.482C233.728 165.515 233.497 166.449 233.029 167.29C232.567 168.131 231.908 168.797 231.059 169.281C230.21 169.772 229.205 170.011 228.038 170.011L228.05 170Z" fill="#0A0A0A"/>
<path d="M246.395 170C244.732 170 243.432 169.725 242.49 169.171C241.555 168.622 240.896 167.816 240.521 166.759C240.145 165.702 239.955 164.406 239.955 162.864V147.705H244.703V163.594C244.703 164.044 244.737 164.499 244.807 164.949C244.876 165.404 245.038 165.772 245.274 166.058C245.517 166.35 245.887 166.49 246.389 166.49C246.892 166.49 247.285 166.344 247.516 166.058C247.747 165.772 247.897 165.398 247.955 164.949C248.018 164.499 248.047 164.044 248.047 163.594V147.705H252.824V162.864C252.824 164.4 252.633 165.696 252.246 166.759C251.859 167.816 251.207 168.622 250.277 169.171C249.347 169.725 248.053 170 246.389 170H246.395Z" fill="#0A0A0A"/>
<path d="M255.759 169.673V147.705H259.138L263.591 158.28V147.705H267.559V169.673H264.313L259.86 158.286V169.673H255.759Z" fill="#0A0A0A"/>
<path d="M270.701 169.673V147.705H275.501V169.673H270.701Z" fill="#0A0A0A"/>
<path d="M284.836 170C283.207 170 281.919 169.714 280.972 169.135C280.024 168.557 279.343 167.722 278.933 166.642C278.523 165.556 278.315 164.265 278.315 162.765V154.601C278.315 153.083 278.517 151.793 278.933 150.724C279.343 149.655 280.024 148.838 280.972 148.271C281.919 147.699 283.207 147.419 284.836 147.419C286.465 147.419 287.782 147.705 288.741 148.271C289.694 148.844 290.381 149.661 290.791 150.724C291.201 151.793 291.409 153.083 291.409 154.601V162.765C291.409 164.265 291.201 165.556 290.791 166.642C290.381 167.728 289.694 168.557 288.741 169.135C287.782 169.714 286.482 170 284.836 170ZM284.836 166.56C285.339 166.56 285.702 166.432 285.934 166.181C286.165 165.93 286.321 165.603 286.39 165.206C286.459 164.809 286.5 164.4 286.5 163.985V153.41C286.5 152.978 286.465 152.563 286.39 152.178C286.321 151.787 286.165 151.471 285.934 151.215C285.702 150.958 285.333 150.835 284.836 150.835C284.368 150.835 284.022 150.963 283.791 151.215C283.56 151.466 283.404 151.787 283.334 152.178C283.265 152.569 283.224 152.978 283.224 153.41V163.985C283.224 164.4 283.253 164.809 283.317 165.206C283.38 165.603 283.519 165.93 283.744 166.181C283.97 166.432 284.328 166.56 284.83 166.56H284.836Z" fill="#0A0A0A"/>
<path d="M294.199 169.673V147.705H297.578L302.032 158.28V147.705H306V169.673H302.754L298.3 158.286V169.673H294.199Z" fill="#0A0A0A"/>
<path d="M31.2831 48.9328C31.2831 47.5547 31.9647 47 33.1893 47H75.8986C77.2618 47 78.3535 47.689 78.6308 48.9328L85.3196 112.115H86.6828V49.0671C86.5442 47.8233 87.3644 47 88.7276 47H115.339C116.84 47 117.932 47.8292 117.932 49.2073V135.145C117.932 136.523 117.251 137.078 115.887 137.078H73.0394C71.6762 137.078 70.5845 136.249 70.4459 135.011L63.757 71.969H62.3938V135.151C62.3938 136.395 61.5736 137.084 60.2104 137.084H33.8709C32.369 137.084 31.2773 136.254 31.2773 134.876V48.9328H31.2831Z" fill="#FEFEFE"/>
<path d="M181.384 135.011L178.109 71.969H176.746L173.332 135.151C173.193 136.395 172.24 137.084 170.877 137.084H131.576C130.345 137.084 129.531 136.535 129.392 135.151L120.659 49.2073C120.52 47.8292 121.479 47 122.981 47H149.592C150.955 47 151.914 47.689 152.047 48.9328L155.46 112.115H156.823L160.099 49.073C160.099 47.8292 161.052 47.0058 162.421 47.0058H192.168C193.531 47.0058 194.49 47.6949 194.623 48.9387L198.037 112.12H199.4L202.675 49.0788C202.675 47.835 203.628 47.0117 204.997 47.0117H231.88C233.381 47.0117 234.335 47.8409 234.202 49.219L225.468 135.157C225.329 136.535 224.515 137.089 223.146 137.089H183.712C182.349 137.089 181.39 136.26 181.39 135.022L181.384 135.011Z" fill="#FEFEFE"/>
<path d="M237.061 123.285V49.0671C237.061 47.8233 237.881 47 239.244 47H266.127C267.49 47 268.449 47.8292 268.449 49.0671V107.969C268.449 109.212 269.269 110.036 270.632 110.036H271.995C273.359 110.036 274.317 109.207 274.317 107.969V49.0671C274.317 47.8233 275.138 47 276.501 47H303.516C304.879 47 305.838 47.8292 305.838 49.0671V123.279C305.838 132.243 299.559 137.072 287.828 137.072H255.077C243.34 137.072 237.067 132.243 237.067 123.279L237.061 123.285Z" fill="#FEFEFE"/>
</g>
<defs>
<clipPath id="clip0_717_2905">
<rect width="275" height="123" fill="white" transform="translate(31 47)"/>
</clipPath>
</defs>
</svg>
