<svg width="77" height="41" viewBox="0 0 77 41" fill="none" xmlns="http://www.w3.org/2000/svg">
<g filter="url(#filter0_d_425_690)">
<path d="M70.7012 16L71.5615 16.7529L70.7012 17.5059L54.7012 31.5059L53.3848 30L67.0068 18.0811H5V16.0811H67.7568L53.3848 3.50586L54.7012 2L70.7012 16Z" fill="#FEFEFE"/>
<path d="M70.7012 16L71.1951 15.4356L71.1951 15.4356L70.7012 16ZM71.5615 16.7529L72.0555 17.3173L72.7004 16.7529L72.0555 16.1885L71.5615 16.7529ZM70.7012 17.5059L71.1951 18.0703L71.1951 18.0703L70.7012 17.5059ZM54.7012 31.5059L54.1365 31.9995L54.6304 32.5644L55.195 32.0703L54.7012 31.5059ZM53.3848 30L52.8909 29.4356L52.3267 29.9292L52.8201 30.4936L53.3848 30ZM67.0068 18.0811L67.5007 18.6455L69.003 17.3311H67.0068V18.0811ZM5 18.0811H4.25V18.8311H5V18.0811ZM5 16.0811V15.3311H4.25V16.0811H5ZM67.7568 16.0811V16.8311H69.753L68.2507 15.5166L67.7568 16.0811ZM53.3848 3.50586L52.8201 3.01224L52.3267 3.57665L52.8909 4.0703L53.3848 3.50586ZM54.7012 2L55.195 1.43557L54.6304 0.941462L54.1365 1.50638L54.7012 2ZM70.7012 16L70.2072 16.5644L71.0676 17.3173L71.5615 16.7529L72.0555 16.1885L71.1951 15.4356L70.7012 16ZM71.5615 16.7529L71.0676 16.1885L70.2072 16.9415L70.7012 17.5059L71.1951 18.0703L72.0555 17.3173L71.5615 16.7529ZM70.7012 17.5059L70.2073 16.9414L54.2073 30.9414L54.7012 31.5059L55.195 32.0703L71.1951 18.0703L70.7012 17.5059ZM54.7012 31.5059L55.2658 31.0122L53.9494 29.5064L53.3848 30L52.8201 30.4936L54.1365 31.9995L54.7012 31.5059ZM53.3848 30L53.8786 30.5644L67.5007 18.6455L67.0068 18.0811L66.513 17.5166L52.8909 29.4356L53.3848 30ZM67.0068 18.0811V17.3311H5V18.0811V18.8311H67.0068V18.0811ZM5 18.0811H5.75V16.0811H5H4.25V18.0811H5ZM5 16.0811V16.8311H67.7568V16.0811V15.3311H5V16.0811ZM67.7568 16.0811L68.2507 15.5166L53.8786 2.94142L53.3848 3.50586L52.8909 4.0703L67.263 16.6455L67.7568 16.0811ZM53.3848 3.50586L53.9494 3.99948L55.2658 2.49362L54.7012 2L54.1365 1.50638L52.8201 3.01224L53.3848 3.50586ZM54.7012 2L54.2073 2.56443L70.2073 16.5644L70.7012 16L71.1951 15.4356L55.195 1.43557L54.7012 2Z" fill="#FEFEFE"/>
</g>
<defs>
<filter id="filter0_d_425_690" x="0.25" y="0.941406" width="76.4504" height="39.623" filterUnits="userSpaceOnUse" color-interpolation-filters="sRGB">
<feFlood flood-opacity="0" result="BackgroundImageFix"/>
<feColorMatrix in="SourceAlpha" type="matrix" values="0 0 0 0 0 0 0 0 0 0 0 0 0 0 0 0 0 0 127 0" result="hardAlpha"/>
<feOffset dy="4"/>
<feGaussianBlur stdDeviation="2"/>
<feComposite in2="hardAlpha" operator="out"/>
<feColorMatrix type="matrix" values="0 0 0 0 0 0 0 0 0 0 0 0 0 0 0 0 0 0 0.25 0"/>
<feBlend mode="normal" in2="BackgroundImageFix" result="effect1_dropShadow_425_690"/>
<feBlend mode="normal" in="SourceGraphic" in2="effect1_dropShadow_425_690" result="shape"/>
</filter>
</defs>
</svg>
