<svg xmlns="http://www.w3.org/2000/svg" viewBox="0 0 33 22" fill="none">
  <mask id="path-outside" maskUnits="userSpaceOnUse" x="0" y="0" width="33" height="22" fill="black">
    <rect fill="white" x="0" y="0" width="33" height="22"/>
    <path d="M16 2.6836L16.7529 1.8232L17.5059 2.6836L31.5059 18.6836L30 20L16.7529 4.8604L3.5059 20L2 18.6836L16 2.6836Z"/>
  </mask>
  <path d="M16 2.6836L16.7529 1.8232L17.5059 2.6836L31.5059 18.6836L30 20L16.7529 4.8604L3.5059 20L2 18.6836L16 2.6836Z" fill="currentColor"/>
  <path d="M16 2.6836L15.2475 2.025L15.2474 2.0251L16 2.6836ZM16.7529 1.8232L17.5055 1.1647L16.7529 0.3048L16.0004 1.1647L16.7529 1.8232ZM17.5059 2.6836L18.2584 2.0251L18.2584 2.025L17.5059 2.6836ZM31.5059 18.6836L32.164 19.4365L32.9172 18.778L32.2584 18.0251L31.5059 18.6836ZM30 20L29.2474 20.6585L29.9056 21.4107L30.6582 20.7529L30 20ZM16.7529 4.8604L17.5055 4.2018L16.7529 3.3418L16.0003 4.2018L16.7529 4.8604ZM3.5059 20L2.8477 20.7529L3.6002 21.4107L4.2584 20.6585L3.5059 20ZM2 18.6836L1.2474 18.0251L0.5886 18.778L1.3418 19.4365L2 18.6836ZM16 2.6836L16.7525 3.3422L17.5055 2.4818L16.7529 1.8232L16.0004 1.1647L15.2475 2.025L16 2.6836ZM16.7529 1.8232L16.0004 2.4818L16.7533 3.3422L17.5059 2.6836L18.2584 2.025L17.5055 1.1647L16.7529 1.8232ZM17.5059 2.6836L16.7533 3.3421L30.7533 19.3421L31.5059 18.6836L32.2584 18.0251L18.2584 2.0251L17.5059 2.6836ZM31.5059 18.6836L30.8477 17.9307L29.3418 19.2471L30 20L30.6582 20.7529L32.164 19.4365L31.5059 18.6836ZM30 20L30.7526 19.3415L17.5055 4.2018L16.7529 4.8604L16.0003 5.5189L29.2474 20.6585L30 20ZM16.7529 4.8604L16.0003 4.2018L2.7533 19.3415L3.5059 20L4.2584 20.6585L17.5055 5.5189L16.7529 4.8604ZM3.5059 20L4.164 19.2471L2.6582 17.9307L2 18.6836L1.3418 19.4365L2.8477 20.7529L3.5059 20ZM2 18.6836L2.7526 19.3421L16.7526 3.3421L16 2.6836L15.2474 2.0251L1.2474 18.0251L2 18.6836Z" fill="currentColor" mask="url(#path-outside)"/>
</svg>